<svg xmlns="http://www.w3.org/2000/svg" xmlns:xlink="http://www.w3.org/1999/xlink" contentStyleType="text/css" data-diagram-type="STATE" height="2261px" preserveAspectRatio="none" style="width:1153px;height:2261px;background:#FFFFFF;" version="1.1" viewBox="0 0 1153 2261" width="1153px" zoomAndPan="magnify"><?plantuml 1.2026.5?><defs/><g><g class="title" data-source-line="1"><text fill="#000000" font-family="sans-serif" font-size="14" font-weight="700" lengthAdjust="spacing" textLength="301.0342" x="422.5216" y="22.9951">Current Robot Runtime State Machine</text></g><g class="entity" data-qualified-name="ContainerStarting" data-source-line="5" id="ent0001"><rect fill="#F1F1F1" height="68.8906" rx="12.5" ry="12.5" style="stroke:#181818;stroke-width:0.5;" width="296.7051" x="782.05" y="124.2969"/><line style="stroke:#181818;stroke-width:0.5;" x1="782.05" x2="1078.7551" y1="150.5938" y2="150.5938"/><text fill="#000000" font-family="sans-serif" font-size="14" lengthAdjust="spacing" textLength="124.2637" x="868.2707" y="142.292">ContainerStarting</text><text fill="#000000" font-family="sans-serif" font-size="14" lengthAdjust="spacing" textLength="276.7051" x="787.05" y="168.5889">Kubernetes starts robot pod on gamma</text><text fill="#000000" font-family="sans-serif" font-size="14" lengthAdjust="spacing" textLength="227.2949" x="787.05" y="184.8857">command ./myapp 100 100 true</text></g><g class="entity" data-qualified-name="Configured" data-source-line="9" id="ent0002"><rect fill="#F1F1F1" height="85.1875" rx="12.5" ry="12.5" style="stroke:#181818;stroke-width:0.5;" width="307.0957" x="671.85" y="270.1869"/><line style="stroke:#181818;stroke-width:0.5;" x1="671.85" x2="978.9457" y1="296.4838" y2="296.4838"/><text fill="#000000" font-family="sans-serif" font-size="14" lengthAdjust="spacing" textLength="77.0479" x="786.8739" y="288.182">Configured</text><text fill="#000000" font-family="sans-serif" font-size="14" lengthAdjust="spacing" textLength="153.9658" x="676.85" y="314.4789">create InfluxDB writer</text><text fill="#000000" font-family="sans-serif" font-size="14" lengthAdjust="spacing" textLength="287.0957" x="676.85" y="330.7757">parse response_timeout, FPS, debug flag</text><text fill="#000000" font-family="sans-serif" font-size="14" lengthAdjust="spacing" textLength="63.7109" x="676.85" y="347.0726">initPIDs()</text></g><g class="entity" data-qualified-name="WaitingForFrame" data-source-line="14" id="ent0003"><rect fill="#F1F1F1" height="52.5938" rx="12.5" ry="12.5" style="stroke:#181818;stroke-width:0.5;" width="151.9063" x="732.45" y="432.3769"/><line style="stroke:#181818;stroke-width:0.5;" x1="732.45" x2="884.3563" y1="458.6738" y2="458.6738"/><text fill="#000000" font-family="sans-serif" font-size="14" lengthAdjust="spacing" textLength="120.4629" x="748.1717" y="450.372">WaitingForFrame</text><text fill="#000000" font-family="sans-serif" font-size="14" lengthAdjust="spacing" textLength="131.9063" x="737.45" y="476.6689">spin in animation()</text></g><g class="entity" data-qualified-name="FrameDue" data-source-line="18" id="ent0004"><rect fill="#F1F1F1" height="68.8906" rx="12.5" ry="12.5" style="stroke:#181818;stroke-width:0.5;" width="216.6289" x="497.09" y="561.9769"/><line style="stroke:#181818;stroke-width:0.5;" x1="497.09" x2="713.7189" y1="588.2738" y2="588.2738"/><text fill="#000000" font-family="sans-serif" font-size="14" lengthAdjust="spacing" textLength="72.9053" x="568.9518" y="579.972">FrameDue</text><text fill="#000000" font-family="sans-serif" font-size="14" lengthAdjust="spacing" textLength="140.3008" x="502.09" y="606.2689">compute delta_time</text><text fill="#000000" font-family="sans-serif" font-size="14" lengthAdjust="spacing" textLength="196.6289" x="502.09" y="622.5657">compute update_delta_time</text></g><g class="entity" data-qualified-name="ResetRobot" data-source-line="23" id="ent0005"><rect fill="#F1F1F1" height="52.5938" rx="12.5" ry="12.5" style="stroke:#181818;stroke-width:0.5;" width="144.332" x="569.24" y="707.8669"/><line style="stroke:#181818;stroke-width:0.5;" x1="569.24" x2="713.572" y1="734.1638" y2="734.1638"/><text fill="#000000" font-family="sans-serif" font-size="14" lengthAdjust="spacing" textLength="80.9717" x="600.9202" y="725.862">ResetRobot</text><text fill="#000000" font-family="sans-serif" font-size="14" lengthAdjust="spacing" textLength="124.332" x="574.24" y="752.1589">myBot.initRobot()</text></g><g class="entity" data-qualified-name="DynamicsAdvanced" data-source-line="30" id="ent0006"><rect fill="#F1F1F1" height="68.8906" rx="12.5" ry="12.5" style="stroke:#181818;stroke-width:0.5;" width="239.1396" x="238.83" y="948.4569"/><line style="stroke:#181818;stroke-width:0.5;" x1="238.83" x2="477.9696" y1="974.7538" y2="974.7538"/><text fill="#000000" font-family="sans-serif" font-size="14" lengthAdjust="spacing" textLength="138.4346" x="289.1825" y="966.452">DynamicsAdvanced</text><text fill="#000000" font-family="sans-serif" font-size="14" lengthAdjust="spacing" textLength="219.1396" x="243.83" y="992.7489">myBot.dynamics(delta_time, F)</text><text fill="#000000" font-family="sans-serif" font-size="14" lengthAdjust="spacing" textLength="134.0322" x="243.83" y="1009.0457">update x/z position</text></g><g class="entity" data-qualified-name="SaveCorrectionState" data-source-line="34" id="ent0007"><rect fill="#F1F1F1" height="68.8906" rx="12.5" ry="12.5" style="stroke:#181818;stroke-width:0.5;" width="236.9863" x="233.91" y="1078.3469"/><line style="stroke:#181818;stroke-width:0.5;" x1="233.91" x2="470.8963" y1="1104.6438" y2="1104.6438"/><text fill="#000000" font-family="sans-serif" font-size="14" lengthAdjust="spacing" textLength="144.4023" x="280.202" y="1096.342">SaveCorrectionState</text><text fill="#000000" font-family="sans-serif" font-size="14" lengthAdjust="spacing" textLength="132.8291" x="238.91" y="1122.6389">save PID x, psi, phi</text><text fill="#000000" font-family="sans-serif" font-size="14" lengthAdjust="spacing" textLength="216.9863" x="238.91" y="1138.9357">save rotation and motor forces</text></g><g class="entity" data-qualified-name="CorrectionWorkerRunning" data-source-line="38" id="ent0008"><path d="M51.13,1208.2369 L651.6676,1208.2369 A12.5,12.5 0 0 1 664.1676,1220.7369 L664.1676,1234.5338 L38.63,1234.5338 L38.63,1220.7369 A12.5,12.5 0 0 1 51.13,1208.2369" fill="#F1F1F1"/><rect fill="none" height="584.5669" rx="12.5" ry="12.5" style="stroke:#181818;stroke-width:0.5;" width="625.5376" x="38.63" y="1208.2369"/><line style="stroke:#181818;stroke-width:0.5;" x1="38.63" x2="664.1676" y1="1234.5338" y2="1234.5338"/><text fill="#000000" font-family="sans-serif" font-size="14" lengthAdjust="spacing" textLength="181.6172" x="260.5902" y="1226.232">CorrectionWorkerRunning</text><g class="entity" data-qualified-name="CorrectionWorkerRunning.RequestX" data-source-line="40" id="ent0009"><rect fill="#F1F1F1" height="52.5938" rx="12.5" ry="12.5" style="stroke:#181818;stroke-width:0.5;" width="164.5254" x="348.87" y="1302.5338"/><line style="stroke:#181818;stroke-width:0.5;" x1="348.87" x2="513.3954" y1="1328.8306" y2="1328.8306"/><text fill="#000000" font-family="sans-serif" font-size="14" lengthAdjust="spacing" textLength="67.0879" x="397.5888" y="1320.5289">RequestX</text><text fill="#000000" font-family="sans-serif" font-size="14" lengthAdjust="spacing" textLength="144.5254" x="353.87" y="1346.8257">timedPidUpdate("x")</text></g><g class="entity" data-qualified-name="CorrectionWorkerRunning.RequestPsi" data-source-line="44" id="ent0010"><rect fill="#F1F1F1" height="52.5938" rx="12.5" ry="12.5" style="stroke:#181818;stroke-width:0.5;" width="176.3105" x="261.97" y="1408.1338"/><line style="stroke:#181818;stroke-width:0.5;" x1="261.97" x2="438.2805" y1="1434.4306" y2="1434.4306"/><text fill="#000000" font-family="sans-serif" font-size="14" lengthAdjust="spacing" textLength="77.123" x="311.5638" y="1426.1289">RequestPsi</text><text fill="#000000" font-family="sans-serif" font-size="14" lengthAdjust="spacing" textLength="156.3105" x="266.97" y="1452.4257">timedPidUpdate("psi")</text></g><g class="entity" data-qualified-name="CorrectionWorkerRunning.RequestPhi" data-source-line="48" id="ent0011"><rect fill="#F1F1F1" height="68.8906" rx="12.5" ry="12.5" style="stroke:#181818;stroke-width:0.5;" width="177.8896" x="114.18" y="1513.7238"/><line style="stroke:#181818;stroke-width:0.5;" x1="114.18" x2="292.0696" y1="1540.0206" y2="1540.0206"/><text fill="#000000" font-family="sans-serif" font-size="14" lengthAdjust="spacing" textLength="78.7021" x="163.7738" y="1531.7189">RequestPhi</text><text fill="#000000" font-family="sans-serif" font-size="14" lengthAdjust="spacing" textLength="125.3574" x="119.18" y="1558.0157">tilt = -PID_x + phi</text><text fill="#000000" font-family="sans-serif" font-size="14" lengthAdjust="spacing" textLength="157.8896" x="119.18" y="1574.3126">timedPidUpdate("phi")</text></g><g class="entity" data-qualified-name="CorrectionWorkerRunning.WorkerCompleted" data-source-line="53" id="ent0012"><rect fill="#F1F1F1" height="85.1875" rx="12.5" ry="12.5" style="stroke:#181818;stroke-width:0.5;" width="146.998" x="50.63" y="1635.6138"/><line style="stroke:#181818;stroke-width:0.5;" x1="50.63" x2="197.628" y1="1661.9106" y2="1661.9106"/><text fill="#000000" font-family="sans-serif" font-size="14" lengthAdjust="spacing" textLength="126.998" x="60.63" y="1653.6089">WorkerCompleted</text><text fill="#000000" font-family="sans-serif" font-size="14" lengthAdjust="spacing" textLength="108.9854" x="55.63" y="1679.9057">update rotation</text><text fill="#000000" font-family="sans-serif" font-size="14" lengthAdjust="spacing" textLength="118.4463" x="55.63" y="1696.2026">update F[0], F[1]</text><text fill="#000000" font-family="sans-serif" font-size="14" lengthAdjust="spacing" textLength="104.4395" x="55.63" y="1712.4995">cv.notify_one()</text></g><g class="entity" data-qualified-name="CorrectionWorkerRunning.WorkerException" data-source-line="58" id="ent0013"><rect fill="#F1F1F1" height="68.8906" rx="12.5" ry="12.5" style="stroke:#181818;stroke-width:0.5;" width="212.582" x="242.84" y="1643.7638"/><line style="stroke:#181818;stroke-width:0.5;" x1="242.84" x2="455.422" y1="1670.0606" y2="1670.0606"/><text fill="#000000" font-family="sans-serif" font-size="14" lengthAdjust="spacing" textLength="119.7861" x="289.2379" y="1661.7589">WorkerException</text><text fill="#000000" font-family="sans-serif" font-size="14" lengthAdjust="spacing" textLength="94.7051" x="247.84" y="1688.0557">log exception</text><text fill="#000000" font-family="sans-serif" font-size="14" lengthAdjust="spacing" textLength="192.582" x="247.84" y="1704.3526">sleep response_timeout ms</text></g><g class="start_entity" data-qualified-name="CorrectionWorkerRunning..start.CorrectionWorkerRunning" data-source-line="39" id="ent0035"><ellipse cx="431.13" cy="1255.5338" fill="#222222" rx="10" ry="10" style="stroke:#222222;stroke-width:1;"/></g><g class="end_entity" data-qualified-name="CorrectionWorkerRunning..end.CorrectionWorkerRunning" data-source-line="56" id="ent0043"><ellipse cx="222.13" cy="1768.8038" fill="none" rx="11" ry="11" style="stroke:#222222;stroke-width:1;"/><ellipse cx="222.13" cy="1768.8038" fill="#222222" rx="6" ry="6" style="stroke:#222222;stroke-width:1;"/></g><!--link *start*CorrectionWorkerRunning to RequestX--><g class="link" data-entity-1="ent0035" data-entity-2="ent0009" data-link-type="dependency" data-source-line="39" id="lnk36"><path d="M431.13,1265.8638 C431.13,1275.0738 431.13,1284.5738 431.13,1297.2438" fill="none" id="*start*CorrectionWorkerRunning-to-RequestX" style="stroke:#181818;stroke-width:1;"/><polygon fill="#181818" points="431.13,1302.2438,435.13,1293.2438,431.13,1297.2438,427.13,1293.2438,431.13,1302.2438" style="stroke:#181818;stroke-width:1;stroke-linejoin:miter;stroke-miterlimit:10;"/></g><!--link RequestX to RequestPsi--><g class="link" data-entity-1="ent0009" data-entity-2="ent0010" data-link-type="dependency" data-source-line="41" id="lnk37"><path d="M367.43,1355.4138 C361,1360.3838 355.31,1366.2438 351.13,1373.1338 C344.93,1383.3338 343.6524,1391.4204 344.5824,1402.7904" fill="none" id="RequestX-to-RequestPsi" style="stroke:#181818;stroke-width:1;"/><polygon fill="#181818" points="344.99,1407.7738,348.243,1398.4776,344.5824,1402.7904,340.2696,1399.1298,344.99,1407.7738" style="stroke:#181818;stroke-width:1;stroke-linejoin:miter;stroke-miterlimit:10;"/><text fill="#000000" font-family="sans-serif" font-size="13" lengthAdjust="spacing" textLength="145.6914" x="352.13" y="1386.2006">x PID response parsed</text></g><!--link RequestX to WorkerException--><g class="link" data-entity-1="ent0009" data-entity-2="ent0013" data-link-type="dependency" data-source-line="42" id="lnk38"><path d="M483.44,1355.6238 C489.32,1360.6238 494.49,1366.4438 498.13,1373.1338 C510.56,1395.9638 609.14,1356.9338 480.13,1582.6138 C465.72,1607.8238 445.7566,1625.4111 422.0666,1640.6311" fill="none" id="RequestX-to-WorkerException" style="stroke:#181818;stroke-width:1;"/><polygon fill="#181818" points="417.86,1643.3338,427.5941,1641.8343,422.0666,1640.6311,423.2699,1635.1037,417.86,1643.3338" style="stroke:#181818;stroke-width:1;stroke-linejoin:miter;stroke-miterlimit:10;"/><text fill="#000000" font-family="sans-serif" font-size="13" lengthAdjust="spacing" textLength="106.0376" x="533.13" y="1491.7906">HTTP/JSON error</text></g><!--link RequestPsi to RequestPhi--><g class="link" data-entity-1="ent0010" data-entity-2="ent0011" data-link-type="dependency" data-source-line="45" id="lnk39"><path d="M261.8,1443.0438 C239.58,1449.3938 218.1,1460.2938 204.13,1478.7238 C196.74,1488.4838 194.8315,1496.4727 195.5515,1508.5127" fill="none" id="RequestPsi-to-RequestPhi" style="stroke:#181818;stroke-width:1;"/><polygon fill="#181818" points="195.85,1513.5038,199.3056,1504.281,195.5515,1508.5127,191.3199,1504.7586,195.85,1513.5038" style="stroke:#181818;stroke-width:1;stroke-linejoin:miter;stroke-miterlimit:10;"/><text fill="#000000" font-family="sans-serif" font-size="13" lengthAdjust="spacing" textLength="156.6348" x="205.13" y="1491.7906">psi PID response parsed</text></g><!--link RequestPsi to WorkerException--><g class="link" data-entity-1="ent0010" data-entity-2="ent0013" data-link-type="dependency" data-source-line="46" id="lnk40"><path d="M358.4,1460.8338 C359.95,1466.6538 361.33,1472.8538 362.13,1478.7238 C370.45,1539.8938 368.75,1556.2438 362.13,1617.6138 C361.22,1626.0438 360.6501,1630.1231 358.8701,1638.4931" fill="none" id="RequestPsi-to-WorkerException" style="stroke:#181818;stroke-width:1;"/><polygon fill="#181818" points="357.83,1643.3838,363.6146,1635.4127,358.8701,1638.4931,355.7896,1633.7486,357.83,1643.3838" style="stroke:#181818;stroke-width:1;stroke-linejoin:miter;stroke-miterlimit:10;"/><text fill="#000000" font-family="sans-serif" font-size="13" lengthAdjust="spacing" textLength="106.0376" x="369.13" y="1552.7406">HTTP/JSON error</text></g><!--link RequestPhi to WorkerCompleted--><g class="link" data-entity-1="ent0011" data-entity-2="ent0012" data-link-type="dependency" data-source-line="50" id="lnk41"><path d="M113.75,1567.2738 C96.97,1574.8138 81.47,1585.4838 71.13,1600.6138 C63.46,1611.8338 63.7376,1619.7929 71.3176,1630.9929" fill="none" id="RequestPhi-to-WorkerCompleted" style="stroke:#181818;stroke-width:1;"/><polygon fill="#181818" points="74.12,1635.1338,72.3883,1625.4383,71.3176,1630.9929,65.763,1629.9222,74.12,1635.1338" style="stroke:#181818;stroke-width:1;stroke-linejoin:miter;stroke-miterlimit:10;"/><text fill="#000000" font-family="sans-serif" font-size="13" lengthAdjust="spacing" textLength="158.1011" x="72.13" y="1613.6806">phi PID response parsed</text></g><!--link RequestPhi to WorkerException--><g class="link" data-entity-1="ent0011" data-entity-2="ent0013" data-link-type="dependency" data-source-line="51" id="lnk42"><path d="M224.48,1582.8938 C232.87,1594.6738 243.13,1607.4638 254.13,1617.6138 C264.29,1626.9938 271.9435,1633.0048 283.7335,1640.7648" fill="none" id="RequestPhi-to-WorkerException" style="stroke:#181818;stroke-width:1;"/><polygon fill="#181818" points="287.91,1643.5138,282.5914,1635.2245,283.7335,1640.7648,278.1931,1641.9069,287.91,1643.5138" style="stroke:#181818;stroke-width:1;stroke-linejoin:miter;stroke-miterlimit:10;"/><text fill="#000000" font-family="sans-serif" font-size="13" lengthAdjust="spacing" textLength="106.0376" x="255.13" y="1613.6806">HTTP/JSON error</text></g><!--link WorkerCompleted to *end*CorrectionWorkerRunning--><g class="link" data-entity-1="ent0012" data-entity-2="ent0043" data-link-type="dependency" data-source-line="56" id="lnk44"><path d="M170.55,1721.1738 C187.37,1736.3738 200.8808,1748.6009 210.5608,1757.3509" fill="none" id="WorkerCompleted-to-*end*CorrectionWorkerRunning" style="stroke:#181818;stroke-width:1;"/><polygon fill="#181818" points="214.27,1760.7038,210.2757,1751.7012,210.5608,1757.3509,204.9111,1757.636,214.27,1760.7038" style="stroke:#181818;stroke-width:1;stroke-linejoin:miter;stroke-miterlimit:10;"/></g><!--link WorkerException to *end*CorrectionWorkerRunning--><g class="link" data-entity-1="ent0013" data-entity-2="ent0043" data-link-type="dependency" data-source-line="60" id="lnk45"><path d="M300.75,1712.9538 C274.68,1731.1438 249.0906,1748.9928 234.8006,1758.9628" fill="none" id="WorkerException-to-*end*CorrectionWorkerRunning" style="stroke:#181818;stroke-width:1;"/><polygon fill="#181818" points="230.7,1761.8238,240.3698,1759.9545,234.8006,1758.9628,235.7923,1753.3936,230.7,1761.8238" style="stroke:#181818;stroke-width:1;stroke-linejoin:miter;stroke-miterlimit:10;"/></g></g><g class="entity" data-qualified-name="WaitingForCorrection" data-source-line="65" id="ent0014"><rect fill="#F1F1F1" height="52.5938" rx="12.5" ry="12.5" style="stroke:#181818;stroke-width:0.5;" width="301.3262" x="130.74" y="1853.8069"/><line style="stroke:#181818;stroke-width:0.5;" x1="130.74" x2="432.0662" y1="1880.1038" y2="1880.1038"/><text fill="#000000" font-family="sans-serif" font-size="14" lengthAdjust="spacing" textLength="148.8047" x="207.0007" y="1871.802">WaitingForCorrection</text><text fill="#000000" font-family="sans-serif" font-size="14" lengthAdjust="spacing" textLength="281.3262" x="135.74" y="1898.0989">main thread waits on condition_variable</text></g><g class="entity" data-qualified-name="PIDApplied" data-source-line="70" id="ent0015"><rect fill="#F1F1F1" height="101.4844" rx="12.5" ry="12.5" style="stroke:#181818;stroke-width:0.5;" width="196.8047" x="7" y="1983.3969"/><line style="stroke:#181818;stroke-width:0.5;" x1="7" x2="203.8047" y1="2009.6938" y2="2009.6938"/><text fill="#000000" font-family="sans-serif" font-size="14" lengthAdjust="spacing" textLength="75.9814" x="67.4116" y="2001.392">PIDApplied</text><text fill="#000000" font-family="sans-serif" font-size="14" lengthAdjust="spacing" textLength="135.3242" x="12" y="2027.6889">keep new PID state</text><text fill="#000000" font-family="sans-serif" font-size="14" lengthAdjust="spacing" textLength="161.376" x="12" y="2043.9857">keep new motor forces</text><text fill="#000000" font-family="sans-serif" font-size="14" lengthAdjust="spacing" textLength="176.8047" x="12" y="2060.2826">timeout_happened=false</text><text fill="#000000" font-family="sans-serif" font-size="14" lengthAdjust="spacing" textLength="154.875" x="12" y="2076.5795">update_ref_time=now</text></g><g class="entity" data-qualified-name="TimeoutRecovery" data-source-line="76" id="ent0016"><rect fill="#F1F1F1" height="101.4844" rx="12.5" ry="12.5" style="stroke:#181818;stroke-width:0.5;" width="254.3018" x="327.25" y="1983.3969"/><line style="stroke:#181818;stroke-width:0.5;" x1="327.25" x2="581.5518" y1="2009.6938" y2="2009.6938"/><text fill="#000000" font-family="sans-serif" font-size="14" lengthAdjust="spacing" textLength="123.1631" x="392.8193" y="2001.392">TimeoutRecovery</text><text fill="#000000" font-family="sans-serif" font-size="14" lengthAdjust="spacing" textLength="163.9121" x="332.25" y="2027.6889">restore saved PID state</text><text fill="#000000" font-family="sans-serif" font-size="14" lengthAdjust="spacing" textLength="234.3018" x="332.25" y="2043.9857">restore rotation and motor forces</text><text fill="#000000" font-family="sans-serif" font-size="14" lengthAdjust="spacing" textLength="172.2314" x="332.25" y="2060.2826">timeout_happened=true</text><text fill="#000000" font-family="sans-serif" font-size="14" lengthAdjust="spacing" textLength="217.54" x="332.25" y="2076.5795">keep previous update_ref_time</text></g><g class="entity" data-qualified-name="FallenSaturated" data-source-line="82" id="ent0017"><rect fill="#F1F1F1" height="68.8906" rx="12.5" ry="12.5" style="stroke:#181818;stroke-width:0.5;" width="192.7988" x="550" y="948.4569"/><line style="stroke:#181818;stroke-width:0.5;" x1="550" x2="742.7988" y1="974.7538" y2="974.7538"/><text fill="#000000" font-family="sans-serif" font-size="14" lengthAdjust="spacing" textLength="111.0498" x="590.8745" y="966.452">FallenSaturated</text><text fill="#000000" font-family="sans-serif" font-size="14" lengthAdjust="spacing" textLength="172.7988" x="555" y="992.7489">set phi to +2.03 or -2.03</text><text fill="#000000" font-family="sans-serif" font-size="14" lengthAdjust="spacing" textLength="131.332" x="555" y="1009.0457">skip PID correction</text></g><g class="entity" data-qualified-name="WriteInflux" data-source-line="86" id="ent0018"><rect fill="#F1F1F1" height="101.4844" rx="12.5" ry="12.5" style="stroke:#181818;stroke-width:0.5;" width="246.6387" x="538.08" y="2145.8869"/><line style="stroke:#181818;stroke-width:0.5;" x1="538.08" x2="784.7187" y1="2172.1838" y2="2172.1838"/><text fill="#000000" font-family="sans-serif" font-size="14" lengthAdjust="spacing" textLength="76.5693" x="623.1147" y="2163.882">WriteInflux</text><text fill="#000000" font-family="sans-serif" font-size="14" lengthAdjust="spacing" textLength="180.9199" x="543.08" y="2190.1789">write measurement angle</text><text fill="#000000" font-family="sans-serif" font-size="14" lengthAdjust="spacing" textLength="226.6387" x="543.08" y="2206.4757">fields value, timeout, delta_time</text><text fill="#000000" font-family="sans-serif" font-size="14" lengthAdjust="spacing" textLength="216.8154" x="543.08" y="2222.7726">tag robotname=pod hostname</text><text fill="#000000" font-family="sans-serif" font-size="14" lengthAdjust="spacing" textLength="217.0205" x="543.08" y="2239.0695">reset timeout_happened=false</text></g><g class="entity" data-qualified-name="ContainerCrash" data-source-line="92" id="ent0019"><rect fill="#F1F1F1" height="52.5938" rx="12.5" ry="12.5" style="stroke:#181818;stroke-width:0.5;" width="257.3574" x="880.72" y="570.1169"/><line style="stroke:#181818;stroke-width:0.5;" x1="880.72" x2="1138.0774" y1="596.4138" y2="596.4138"/><text fill="#000000" font-family="sans-serif" font-size="14" lengthAdjust="spacing" textLength="108.6914" x="955.053" y="588.112">ContainerCrash</text><text fill="#000000" font-family="sans-serif" font-size="14" lengthAdjust="spacing" textLength="237.3574" x="885.72" y="614.4089">Kubernetes may restart container</text></g><g class="start_entity" data-qualified-name=".start." data-source-line="3" id="ent0020"><ellipse cx="930.4" cy="53.2969" fill="#222222" rx="10" ry="10" style="stroke:#222222;stroke-width:1;"/></g><g class="entity" data-qualified-name="BalanceCheck" data-source-line="21" id="ent0027"><rect fill="#F1F1F1" height="50" rx="12.5" ry="12.5" style="stroke:#181818;stroke-width:0.5;" width="118.9023" x="468.95" y="821.4569"/><line style="stroke:#181818;stroke-width:0.5;" x1="468.95" x2="587.8523" y1="847.7538" y2="847.7538"/><text fill="#000000" font-family="sans-serif" font-size="14" lengthAdjust="spacing" textLength="98.9023" x="478.95" y="839.452">BalanceCheck</text></g><!--link *start* to ContainerStarting--><g class="link" data-entity-1="ent0020" data-entity-2="ent0001" data-link-type="dependency" data-source-line="3" id="lnk21"><path d="M930.4,63.4769 C930.4,76.9269 930.4,97.6969 930.4,118.8869" fill="none" id="*start*-to-ContainerStarting" style="stroke:#181818;stroke-width:1;"/><polygon fill="#181818" points="930.4,123.8869,934.4,114.8869,930.4,118.8869,926.4,114.8869,930.4,123.8869" style="stroke:#181818;stroke-width:1;stroke-linejoin:miter;stroke-miterlimit:10;"/></g><!--link ContainerStarting to Configured--><g class="link" data-entity-1="ent0001" data-entity-2="ent0002" data-link-type="dependency" data-source-line="7" id="lnk22"><path d="M907.1,193.4869 C891.57,215.9669 873.8907,241.5722 857.3007,265.6022" fill="none" id="ContainerStarting-to-Configured" style="stroke:#181818;stroke-width:1;"/><polygon fill="#181818" points="854.46,269.7169,862.865,264.5831,857.3007,265.6022,856.2815,260.0379,854.46,269.7169" style="stroke:#181818;stroke-width:1;stroke-linejoin:miter;stroke-miterlimit:10;"/><text fill="#000000" font-family="sans-serif" font-size="13" lengthAdjust="spacing" textLength="42.6245" x="885.4" y="236.2538">main()</text></g><!--link Configured to WaitingForFrame--><g class="link" data-entity-1="ent0002" data-entity-2="ent0003" data-link-type="dependency" data-source-line="12" id="lnk23"><path d="M820.44,355.7869 C817.52,380.5069 814.5069,406.0014 812.0069,427.1514" fill="none" id="Configured-to-WaitingForFrame" style="stroke:#181818;stroke-width:1;"/><polygon fill="#181818" points="811.42,432.1169,816.4488,423.6486,812.0069,427.1514,808.5041,422.7096,811.42,432.1169" style="stroke:#181818;stroke-width:1;stroke-linejoin:miter;stroke-miterlimit:10;"/></g><!--link WaitingForFrame to FrameDue--><g class="link" data-entity-1="ent0003" data-entity-2="ent0004" data-link-type="dependency" data-source-line="15" id="lnk24"><path d="M732.32,474.3269 C704.25,482.6369 673.66,495.4369 650.4,514.9769 C635.82,527.2169 627.1503,540.9202 619.8203,556.9402" fill="none" id="WaitingForFrame-to-FrameDue" style="stroke:#181818;stroke-width:1;"/><polygon fill="#181818" points="617.74,561.4869,625.1219,554.9671,619.8203,556.9402,617.8473,551.6386,617.74,561.4869" style="stroke:#181818;stroke-width:1;stroke-linejoin:miter;stroke-miterlimit:10;"/><text fill="#000000" font-family="sans-serif" font-size="13" lengthAdjust="spacing" textLength="124.1729" x="651.4" y="528.0438">delta_time &gt; 1/FPS</text></g><!--link WaitingForFrame to ContainerCrash--><g class="link" data-entity-1="ent0003" data-entity-2="ent0019" data-link-type="dependency" data-source-line="16" id="lnk25"><path d="M820.85,485.2169 C829.36,500.4769 841.91,519.3069 857.4,531.9769 C876.77,547.8069 896.0372,558.3216 919.0872,567.8216" fill="none" id="WaitingForFrame-to-ContainerCrash" style="stroke:#181818;stroke-width:1;"/><polygon fill="#181818" points="923.71,569.7269,916.9132,562.5992,919.0872,567.8216,913.8648,569.9956,923.71,569.7269" style="stroke:#181818;stroke-width:1;stroke-linejoin:miter;stroke-miterlimit:10;"/><text fill="#000000" font-family="sans-serif" font-size="13" lengthAdjust="spacing" textLength="150.7061" x="858.4" y="528.0438">process exits / segfault</text></g><!--link FrameDue to ResetRobot--><g class="link" data-entity-1="ent0004" data-entity-2="ent0005" data-link-type="dependency" data-source-line="20" id="lnk26"><path d="M599.13,630.9769 C597.65,645.6769 597.67,662.9469 602.4,677.8669 C605.74,688.3869 608.9284,694.6084 615.3684,703.3684" fill="none" id="FrameDue-to-ResetRobot" style="stroke:#181818;stroke-width:1;"/><polygon fill="#181818" points="618.33,707.3969,616.2219,697.7763,615.3684,703.3684,609.7763,702.5148,618.33,707.3969" style="stroke:#181818;stroke-width:1;stroke-linejoin:miter;stroke-miterlimit:10;"/><text fill="#000000" font-family="sans-serif" font-size="13" lengthAdjust="spacing" textLength="172.5547" x="603.4" y="673.9338">phi and phip are near zero</text></g><!--link FrameDue to BalanceCheck--><g class="link" data-entity-1="ent0004" data-entity-2="ent0027" data-link-type="dependency" data-source-line="21" id="lnk28"><path d="M537.44,631.2169 C508.38,649.5569 477.5,675.2269 461.4,707.8669 C441.89,747.4169 472.3968,789.9109 498.6968,817.4509" fill="none" id="FrameDue-to-BalanceCheck" style="stroke:#181818;stroke-width:1;"/><polygon fill="#181818" points="502.15,821.0669,498.8271,811.7955,498.6968,817.4509,493.0415,817.3206,502.15,821.0669" style="stroke:#181818;stroke-width:1;stroke-linejoin:miter;stroke-miterlimit:10;"/><text fill="#000000" font-family="sans-serif" font-size="13" lengthAdjust="spacing" textLength="88.4609" x="462.4" y="738.7238">normal frame</text></g><!--link ResetRobot to BalanceCheck--><g class="link" data-entity-1="ent0005" data-entity-2="ent0027" data-link-type="dependency" data-source-line="24" id="lnk29"><path d="M615.19,760.7369 C596.55,778.9369 575.2282,799.7545 556.8882,817.6545" fill="none" id="ResetRobot-to-BalanceCheck" style="stroke:#181818;stroke-width:1;"/><polygon fill="#181818" points="553.31,821.1469,562.5446,817.7232,556.8882,817.6545,556.9569,811.9981,553.31,821.1469" style="stroke:#181818;stroke-width:1;stroke-linejoin:miter;stroke-miterlimit:10;"/></g><!--link BalanceCheck to DynamicsAdvanced--><g class="link" data-entity-1="ent0027" data-entity-2="ent0006" data-link-type="dependency" data-source-line="26" id="lnk30"><path d="M468.71,859.3569 C441.88,867.3569 411.56,880.4169 390.4,901.4569 C377.72,914.0669 371.3296,927.5426 366.6096,943.4826" fill="none" id="BalanceCheck-to-DynamicsAdvanced" style="stroke:#181818;stroke-width:1;"/><polygon fill="#181818" points="365.19,948.2769,371.5807,940.783,366.6096,943.4826,363.9099,938.5116,365.19,948.2769" style="stroke:#181818;stroke-width:1;stroke-linejoin:miter;stroke-miterlimit:10;"/><text fill="#000000" font-family="sans-serif" font-size="13" lengthAdjust="spacing" textLength="120.5039" x="391.4" y="914.5238">abs(phi) &lt;= 0.785</text></g><!--link BalanceCheck to FallenSaturated--><g class="link" data-entity-1="ent0027" data-entity-2="ent0017" data-link-type="dependency" data-source-line="27" id="lnk31"><path d="M520.97,871.8169 C518.02,886.3569 517.04,904.6269 525.4,918.4569 C532.58,930.3269 538.6966,937.2299 550.1866,945.2299" fill="none" id="BalanceCheck-to-FallenSaturated" style="stroke:#181818;stroke-width:1;"/><polygon fill="#181818" points="554.29,948.0869,549.1895,939.6616,550.1866,945.2299,544.6184,946.227,554.29,948.0869" style="stroke:#181818;stroke-width:1;stroke-linejoin:miter;stroke-miterlimit:10;"/><text fill="#000000" font-family="sans-serif" font-size="13" lengthAdjust="spacing" textLength="76.4766" x="526.4" y="914.5238">phi &gt; 0.785</text></g><!--link BalanceCheck to FallenSaturated--><g class="link" data-entity-1="ent0027" data-entity-2="ent0017" data-link-type="dependency" data-source-line="28" id="lnk32"><path d="M572.66,871.8369 C584.98,880.0969 597.64,890.1269 607.4,901.4569 C619.16,915.0969 626.3399,928.2744 632.7799,943.6644" fill="none" id="BalanceCheck-to-FallenSaturated-1" style="stroke:#181818;stroke-width:1;"/><polygon fill="#181818" points="634.71,948.2769,634.9258,938.4304,632.7799,943.6644,627.5459,941.5185,634.71,948.2769" style="stroke:#181818;stroke-width:1;stroke-linejoin:miter;stroke-miterlimit:10;"/><text fill="#000000" font-family="sans-serif" font-size="13" lengthAdjust="spacing" textLength="81.1675" x="620.4" y="914.5238">phi &lt; -0.785</text></g><!--link DynamicsAdvanced to SaveCorrectionState--><g class="link" data-entity-1="ent0006" data-entity-2="ent0007" data-link-type="dependency" data-source-line="32" id="lnk33"><path d="M356.81,1017.8369 C355.94,1036.4869 355.0836,1054.5423 354.2136,1073.1423" fill="none" id="DynamicsAdvanced-to-SaveCorrectionState" style="stroke:#181818;stroke-width:1;"/><polygon fill="#181818" points="353.98,1078.1369,358.3961,1069.3336,354.2136,1073.1423,350.4049,1068.9598,353.98,1078.1369" style="stroke:#181818;stroke-width:1;stroke-linejoin:miter;stroke-miterlimit:10;"/></g><!--link SaveCorrectionState to CorrectionWorkerRunning--><g class="link" data-entity-1="ent0007" data-entity-2="ent0008" data-link-type="dependency" data-source-line="36" id="lnk34"><path d="M352.31,1147.6869 C352.27,1163.6769 352.2328,1179.3969 352.1728,1202.7669" fill="none" id="SaveCorrectionState-to-CorrectionWorkerRunning" style="stroke:#181818;stroke-width:1;"/><polygon fill="#181818" points="352.16,1207.7669,356.1831,1198.7772,352.1728,1202.7669,348.1831,1198.7566,352.16,1207.7669" style="stroke:#181818;stroke-width:1;stroke-linejoin:miter;stroke-miterlimit:10;"/></g><!--link CorrectionWorkerRunning to WaitingForCorrection--><g class="link" data-entity-1="ent0008" data-entity-2="ent0014" data-link-type="dependency" data-source-line="63" id="lnk46"><path d="M297.37,1792.9469 C292.89,1817.1569 289.9126,1833.2009 287.0926,1848.3909" fill="none" id="CorrectionWorkerRunning-to-WaitingForCorrection" style="stroke:#181818;stroke-width:1;"/><polygon fill="#181818" points="286.18,1853.3069,291.7556,1845.1882,287.0926,1848.3909,283.89,1843.728,286.18,1853.3069" style="stroke:#181818;stroke-width:1;stroke-linejoin:miter;stroke-miterlimit:10;"/></g><!--link WaitingForCorrection to PIDApplied--><g class="link" data-entity-1="ent0014" data-entity-2="ent0015" data-link-type="dependency" data-source-line="66" id="lnk47"><path d="M130.39,1900.4769 C89.98,1908.9169 53.98,1920.5869 41.4,1936.3969 C29.74,1951.0569 32.0242,1963.8088 43.4442,1979.2288" fill="none" id="WaitingForCorrection-to-PIDApplied" style="stroke:#181818;stroke-width:1;"/><polygon fill="#181818" points="46.42,1983.2469,44.2781,1973.6338,43.4442,1979.2288,37.8492,1978.395,46.42,1983.2469" style="stroke:#181818;stroke-width:1;stroke-linejoin:miter;stroke-miterlimit:10;"/><text fill="#000000" font-family="sans-serif" font-size="13" lengthAdjust="spacing" textLength="195.5649" x="42.4" y="1949.4638">worker notifies before 100 ms</text></g><!--link WaitingForCorrection to TimeoutRecovery--><g class="link" data-entity-1="ent0014" data-entity-2="ent0016" data-link-type="dependency" data-source-line="67" id="lnk48"><path d="M258.27,1906.7669 C248.18,1921.1669 240.62,1939.0769 250.4,1953.3969 C268.52,1979.9369 292.2501,1995.7987 322.1501,2007.6187" fill="none" id="WaitingForCorrection-to-TimeoutRecovery" style="stroke:#181818;stroke-width:1;"/><polygon fill="#181818" points="326.8,2009.4569,319.9008,2002.4283,322.1501,2007.6187,316.9597,2009.8681,326.8,2009.4569" style="stroke:#181818;stroke-width:1;stroke-linejoin:miter;stroke-miterlimit:10;"/><text fill="#000000" font-family="sans-serif" font-size="13" lengthAdjust="spacing" textLength="159.7959" x="251.4" y="1949.4638">wait_for reaches 100 ms</text></g><!--link WaitingForCorrection to TimeoutRecovery--><g class="link" data-entity-1="ent0014" data-entity-2="ent0016" data-link-type="dependency" data-source-line="68" id="lnk49"><path d="M371.87,1906.7769 C387.8,1914.3669 403.17,1924.0669 415.4,1936.3969 C428.03,1949.1269 435.034,1961.7697 440.944,1978.2697" fill="none" id="WaitingForCorrection-to-TimeoutRecovery-1" style="stroke:#181818;stroke-width:1;"/><polygon fill="#181818" points="442.63,1982.9769,443.3609,1973.1552,440.944,1978.2697,435.8294,1975.8528,442.63,1982.9769" style="stroke:#181818;stroke-width:1;stroke-linejoin:miter;stroke-miterlimit:10;"/><text fill="#000000" font-family="sans-serif" font-size="13" lengthAdjust="spacing" textLength="252.2939" x="429.4" y="1949.4638">exception reaches timeoutCorrection()</text></g><!--link PIDApplied to WriteInflux--><g class="link" data-entity-1="ent0015" data-entity-2="ent0018" data-link-type="dependency" data-source-line="74" id="lnk50"><path d="M204.16,2063.6469 C297.31,2090.5369 432.4562,2129.54 532.9762,2158.56" fill="none" id="PIDApplied-to-WriteInflux" style="stroke:#181818;stroke-width:1;"/><polygon fill="#181818" points="537.78,2159.9469,530.2426,2153.6075,532.9762,2158.56,528.0236,2161.2936,537.78,2159.9469" style="stroke:#181818;stroke-width:1;stroke-linejoin:miter;stroke-miterlimit:10;"/></g><!--link TimeoutRecovery to WriteInflux--><g class="link" data-entity-1="ent0016" data-entity-2="ent0018" data-link-type="dependency" data-source-line="80" id="lnk51"><path d="M519.05,2085.2569 C543.84,2104.4769 568.1583,2123.3335 592.9383,2142.5435" fill="none" id="TimeoutRecovery-to-WriteInflux" style="stroke:#181818;stroke-width:1;"/><polygon fill="#181818" points="596.89,2145.6069,592.2278,2136.9314,592.9383,2142.5435,587.3263,2143.2541,596.89,2145.6069" style="stroke:#181818;stroke-width:1;stroke-linejoin:miter;stroke-miterlimit:10;"/></g><!--link FallenSaturated to WriteInflux--><g class="link" data-entity-1="ent0017" data-entity-2="ent0018" data-link-type="dependency" data-source-line="84" id="lnk52"><path d="M684.68,1017.6969 C707.24,1041.4569 731.4,1075.3969 731.4,1111.7969 C731.4,1111.7969 731.4,1111.7969 731.4,2035.1369 C731.4,2074.5069 715.9984,2110.7816 698.2984,2141.3016" fill="none" id="FallenSaturated-to-WriteInflux" style="stroke:#181818;stroke-width:1;"/><polygon fill="#181818" points="695.79,2145.6269,703.7654,2139.8482,698.2984,2141.3016,696.845,2135.8347,695.79,2145.6269" style="stroke:#181818;stroke-width:1;stroke-linejoin:miter;stroke-miterlimit:10;"/></g><!--link WriteInflux to WaitingForFrame--><g class="link" data-entity-1="ent0018" data-entity-2="ent0003" data-link-type="dependency" data-source-line="90" id="lnk53"><path d="M738.5,2145.5469 C771.42,2117.6869 802.4,2079.6469 802.4,2035.1369 C802.4,595.4169 802.4,595.4169 802.4,595.4169 C802.4,557.0869 804.4965,517.7164 806.2665,490.4164" fill="none" id="WriteInflux-to-WaitingForFrame" style="stroke:#181818;stroke-width:1;"/><polygon fill="#181818" points="806.59,485.4269,802.0161,494.1492,806.2665,490.4164,809.9993,494.6668,806.59,485.4269" style="stroke:#181818;stroke-width:1;stroke-linejoin:miter;stroke-miterlimit:10;"/></g><!--link ContainerCrash to ContainerStarting--><g class="link" data-entity-1="ent0019" data-entity-2="ent0001" data-link-type="dependency" data-source-line="93" id="lnk54"><path d="M1012.81,569.7669 C1019.3,513.8069 1029.98,377.2169 996.4,270.1869 C987.71,242.4869 973.6828,218.5432 959.1628,197.6432" fill="none" id="ContainerCrash-to-ContainerStarting" style="stroke:#181818;stroke-width:1;"/><polygon fill="#181818" points="956.31,193.5369,958.16,203.2104,959.1628,197.6432,964.7301,198.646,956.31,193.5369" style="stroke:#181818;stroke-width:1;stroke-linejoin:miter;stroke-miterlimit:10;"/><text fill="#000000" font-family="sans-serif" font-size="13" lengthAdjust="spacing" textLength="86.0234" x="1018.4" y="398.4438">restart policy</text></g><?plantuml-src bLRRRjj647tdLmpo93NMnIsA5a5a89OhD0tQ2fQB530COKMEn8N9NNPtgKkA_djdbfHvbG4_n15dpyoUkUpCEEaIX7bk32e7ztgZwM-kd4mHLauuXDz564k5GV3utHECHZSmrye9aXWwDqwgNH1qHF01lkGRD0eTMh0ijM2yzKn7e1NiH9gANiLGqucAO3n9JoBBu7ewzV-SoR57eQIqbRlSO4JwAPqFXfvK9GmDiZEVrJR9ZtUtS33IeMbYCc4iWa6RQMLnpJ7GkRk2nN9r1H5kyXri4x5hAaabtVBpdQKRQt8czLL89hZGPc54IW5i2KZPPbAH1H1Afi99pRpRA3RbVztbh19XueJd1ZTmFI5klHelSPeROMDspkWGhGKyIah512pkjY9FN13KZ5Feivp2L5tITvfd4SLotGVYg-_HeYigYQwD9N0owVyCX45GA0nyGwERIhSY4Ih4UOpXCwafRLAHmBO8NCDYUhhLRinXznAAMEsuRIe86eRv-EwaH2f3-odQym7dK6piW0WEuUCCfkEVVlwngxKGIO9g9LnkoFUezEpcRV2FC2hmGG-9mg-eF1XKqQK27FOf56c0u-GRlIahkNowC2Qp4dkSQthX8MFygmw27Y4N94c1oXcELv1PUSMqNuCQxNpT-Xodsca3Msseq7gLYi8yoxvgyuo6cetoFSHwo8LZ-3S0E3UWU_mdH-l-9j7v9_7XK4LB6Vtbmp9uTtmth0DgYaih2N_qVfvVU_7uexP6GUANOuYPT_C3_Fhmi9pyjlhp3q1Zj0agZS9icmP5iKw4GNKgCUiGvdKoPwqtqOaBEec36Op8_Fe8xtq-Ev0MuxZ9EAxVFQSUa61Lqg_JZjz0ksk_BF1pZRs6MJnEd-YTF5u_zQB2_LXf9xUdjLOu6FPWc2RLLqMapZRHE-gRvNSlmYQ8MMTqG6fxqEUh_kCHrL_jpV5HeUepf9AMCmzSJ4CkWeFW3a_YKAl8juNrNXWfDWdsg_DjbCTFMPP87ww39mC-P9BczmRfKQCVmkJHHHiFXTVt6EezcXCR8kYQT2aoj4MGfRURU8dxYuqok9Kc3_i6_sTEXiA3hqxVLowSDpfM0r9Uievf0q65qMmh4jioKyv1WrkVy9dIXph09v7NZ6Bf28AkSrGmZYFBlJIgiRsClDnmkpeT7_m6rSNvS6G6zrBdjkrL1zzngplhQ1pxvk0qlFz-FFq1YEM8V_HXdsanOC_3gihRgCwLjG-kClw258MbtIlbFLQe7HTx0qMLd4GMzYB9QQI-B7UrBQQ9Ts9NRAmqKN76MskihVze0Gsl7vSAfWxjNGexYrfjRqx5oIUUDbr-p0MkhT6xafSLmugPJcHu-Xy0?></g></svg>